<svg width="320" height="454" viewBox="0 0 320 454" fill="none" xmlns="http://www.w3.org/2000/svg">
<path fill-rule="evenodd" clip-rule="evenodd" d="M14.0113 0C6.27307 0 0 6.27306 0 14.0113V439.955C0 447.693 6.27306 453.966 14.0113 453.966H41.1634C59.471 453.966 73.869 437.027 87.6052 424.923C94.6152 418.747 103.818 415 113.895 415H205.704C215.781 415 224.983 418.747 231.993 424.923C245.729 437.027 260.127 453.966 278.435 453.966H305.446C313.185 453.966 319.458 447.693 319.458 439.955V320.474C319.458 306.254 308.333 294.069 302.494 281.103C300.835 277.421 299.912 273.335 299.912 269.034V197.576C299.912 193.275 300.835 189.189 302.494 185.506C308.333 172.54 319.458 160.356 319.458 146.136V14.0113C319.458 6.27307 313.185 0 305.446 0H14.0113Z" fill="#EBEBEB"/>
</svg>
