<svg width="1028" height="70" viewBox="0 0 1028 70" fill="none" xmlns="http://www.w3.org/2000/svg">
<g clip-path="url(#clip0_5473_5022)">
<rect width="1027.11" height="69.0276" transform="translate(0.894531 0.901611)" fill="#EEEEEE"/>
<rect width="17.8605" height="134.54" transform="translate(42.2832 -27.8633) rotate(41.9651)" fill="#D7D5D5"/>
<rect width="17.8605" height="134.54" transform="translate(82.2539 -27.8633) rotate(41.9651)" fill="#D7D5D5"/>
<rect width="17.8605" height="134.54" transform="translate(122.223 -27.8633) rotate(41.9651)" fill="#D7D5D5"/>
<rect width="17.8605" height="134.54" transform="translate(162.191 -27.8633) rotate(41.9651)" fill="#D7D5D5"/>
<rect width="17.8605" height="134.54" transform="translate(202.16 -27.8633) rotate(41.9651)" fill="#D7D5D5"/>
<rect width="17.8605" height="134.54" transform="translate(242.129 -27.8633) rotate(41.9651)" fill="#D7D5D5"/>
<rect width="17.8605" height="134.54" transform="translate(282.098 -27.8633) rotate(41.9651)" fill="#D7D5D5"/>
<rect width="17.8605" height="134.54" transform="translate(322.066 -27.8633) rotate(41.9651)" fill="#D7D5D5"/>
<rect width="17.8605" height="134.54" transform="translate(362.035 -27.8633) rotate(41.9651)" fill="#D7D5D5"/>
<rect width="17.8605" height="134.54" transform="translate(402.004 -27.8633) rotate(41.9651)" fill="#D7D5D5"/>
<rect width="17.8605" height="134.54" transform="translate(441.973 -27.8633) rotate(41.9651)" fill="#D7D5D5"/>
<rect width="17.8605" height="134.54" transform="translate(481.941 -27.8633) rotate(41.9651)" fill="#D7D5D5"/>
<rect width="17.8605" height="134.54" transform="translate(521.91 -27.8633) rotate(41.9651)" fill="#D7D5D5"/>
<rect width="17.8605" height="134.54" transform="translate(561.879 -27.8633) rotate(41.9651)" fill="#D7D5D5"/>
<rect width="17.8605" height="134.54" transform="translate(601.848 -27.8633) rotate(41.9651)" fill="#D7D5D5"/>
<rect width="17.8605" height="134.54" transform="translate(641.816 -27.8633) rotate(41.9651)" fill="#D7D5D5"/>
<rect width="17.8605" height="134.54" transform="translate(681.785 -27.8633) rotate(41.9651)" fill="#D7D5D5"/>
<rect width="17.8605" height="134.54" transform="translate(721.754 -27.8633) rotate(41.9651)" fill="#D7D5D5"/>
<rect width="17.8605" height="134.54" transform="translate(761.723 -27.8633) rotate(41.9651)" fill="#D7D5D5"/>
<rect width="17.8605" height="134.54" transform="translate(801.691 -27.8633) rotate(41.9651)" fill="#D7D5D5"/>
<rect width="17.8605" height="134.54" transform="translate(841.66 -27.8633) rotate(41.9651)" fill="#D7D5D5"/>
<rect width="17.8605" height="134.54" transform="translate(881.629 -27.8633) rotate(41.9651)" fill="#D7D5D5"/>
<rect width="17.8605" height="134.54" transform="translate(921.598 -27.8633) rotate(41.9651)" fill="#D7D5D5"/>
<rect width="17.8605" height="134.54" transform="translate(961.566 -27.8633) rotate(41.9651)" fill="#D7D5D5"/>
<rect width="17.8605" height="134.54" transform="translate(1001.54 -27.8633) rotate(41.9651)" fill="#D7D5D5"/>
<rect width="17.8605" height="134.54" transform="translate(1041.5 -27.8633) rotate(41.9651)" fill="#D7D5D5"/>
<rect width="17.8605" height="134.54" transform="translate(1081.47 -27.8633) rotate(41.9651)" fill="#D7D5D5"/>
</g>
<defs>
<clipPath id="clip0_5473_5022">
<rect width="1027.11" height="69.0276" fill="white" transform="translate(0.894531 0.901611)"/>
</clipPath>
</defs>
</svg>
