<svg width="32" height="33" viewBox="0 0 32 33" fill="none" xmlns="http://www.w3.org/2000/svg">
<path d="M32 16.5352C32 7.6986 24.8366 0.535156 16 0.535156C7.16344 0.535156 0 7.6986 0 16.5352C0 25.3717 7.16344 32.5352 16 32.5352C24.8366 32.5352 32 25.3717 32 16.5352Z" fill="#F8FAFC"/>
<path fill-rule="evenodd" clip-rule="evenodd" d="M15.9549 7.99219H16.0503C17.8759 7.99218 19.3098 7.99217 20.4293 8.14268C21.5764 8.29692 22.4867 8.61945 23.2019 9.33461C23.917 10.0498 24.2395 10.96 24.3938 12.1072C24.5443 13.2267 24.5443 14.6606 24.5443 16.4862V16.5815C24.5443 18.4071 24.5443 19.841 24.3938 20.9605C24.2395 22.1077 23.917 23.0179 23.2019 23.7331C22.4867 24.4483 21.5764 24.7708 20.4293 24.925C19.3098 25.0755 17.8759 25.0755 16.0503 25.0755H15.9549C14.1294 25.0755 12.6955 25.0755 11.576 24.925C10.4287 24.7708 9.51853 24.4483 8.80336 23.7331C8.0882 23.0179 7.76567 22.1077 7.61143 20.9605C7.46092 19.841 7.46093 18.4071 7.46094 16.5815V16.4862C7.46093 14.6606 7.46092 13.2267 7.61143 12.1072C7.76567 10.96 8.0882 10.0498 8.80336 9.33461C9.51853 8.61945 10.4287 8.29692 11.576 8.14268C12.6955 7.99217 14.1294 7.99218 15.9549 7.99219ZM12.6709 15.2839C12.6709 14.8236 12.2978 14.4505 11.8376 14.4505C11.3773 14.4505 11.0042 14.8236 11.0042 15.2839V20.7005C11.0042 21.1608 11.3773 21.5339 11.8376 21.5339C12.2978 21.5339 12.6709 21.1608 12.6709 20.7005V15.2839ZM15.1709 14.0339C15.5087 14.0339 15.7996 14.2349 15.9304 14.5238C16.437 14.213 17.033 14.0339 17.6709 14.0339C19.5119 14.0339 21.0043 15.5263 21.0043 17.3672V20.7005C21.0043 21.1608 20.6311 21.5339 20.1709 21.5339C19.7107 21.5339 19.3376 21.1608 19.3376 20.7005V17.3672C19.3376 16.4467 18.5914 15.7005 17.6709 15.7005C16.7504 15.7005 16.0043 16.4467 16.0043 17.3672V20.7005C16.0043 21.1608 15.6311 21.5339 15.1709 21.5339C14.7107 21.5339 14.3376 21.1608 14.3376 20.7005V14.8672C14.3376 14.4069 14.7107 14.0339 15.1709 14.0339ZM12.8857 12.3672C12.8857 12.9425 12.4194 13.4089 11.8441 13.4089H11.8366C11.2613 13.4089 10.7949 12.9425 10.7949 12.3672C10.7949 11.7919 11.2613 11.3255 11.8366 11.3255H11.8441C12.4194 11.3255 12.8857 11.7919 12.8857 12.3672Z" fill="#18181B"/>
</svg>
