<svg width="32" height="33" viewBox="0 0 32 33" fill="none" xmlns="http://www.w3.org/2000/svg">
<path d="M32 16.5352C32 7.6986 24.8366 0.535156 16 0.535156C7.16344 0.535156 0 7.6986 0 16.5352C0 25.3717 7.16344 32.5352 16 32.5352C24.8366 32.5352 32 25.3717 32 16.5352Z" fill="#F8FAFC"/>
<path d="M7.96408 8.85276C8.10299 8.5811 8.38238 8.41016 8.6875 8.41016H12.75C13.0109 8.41016 13.2559 8.53544 13.4087 8.74695L17.2795 14.1066L22.738 8.64813C23.0553 8.33083 23.5698 8.33083 23.887 8.64813C24.2043 8.96543 24.2043 9.47988 23.887 9.79718L18.2433 15.441L23.9712 23.3719C24.1498 23.6193 24.1748 23.9459 24.0359 24.2176C23.897 24.4892 23.6176 24.6602 23.3125 24.6602H19.25C18.9891 24.6602 18.7441 24.5349 18.5913 24.3234L14.7205 18.9637L9.26203 24.4222C8.94473 24.7395 8.43028 24.7395 8.11298 24.4222C7.79568 24.1049 7.79568 23.5904 8.11298 23.2732L13.7568 17.6293L8.02883 9.69836C7.85018 9.45101 7.82518 9.12443 7.96408 8.85276Z" fill="#18181B"/>
</svg>
