<svg width="32" height="33" viewBox="0 0 32 33" fill="none" xmlns="http://www.w3.org/2000/svg">
<path d="M32 16.5352C32 7.6986 24.8366 0.535156 16 0.535156C7.16344 0.535156 0 7.6986 0 16.5352C0 25.3717 7.16344 32.5352 16 32.5352C24.8366 32.5352 32 25.3717 32 16.5352Z" fill="#F8FAFC"/>
<path fill-rule="evenodd" clip-rule="evenodd" d="M16.0503 7.99219C17.8759 7.99218 19.3098 7.99217 20.4293 8.14268C21.5764 8.29692 22.4867 8.61945 23.2019 9.33461C23.917 10.0498 24.2395 10.96 24.3938 12.1072C24.5443 13.2267 24.5443 14.6606 24.5443 16.4862V16.5815C24.5443 18.4071 24.5443 19.841 24.3938 20.9605C24.2395 22.1077 23.917 23.0179 23.2019 23.7331C22.4867 24.4483 21.5764 24.7708 20.4293 24.925C19.3098 25.0755 17.8759 25.0755 16.0503 25.0755H15.9549C14.1294 25.0755 12.6955 25.0755 11.576 24.925C10.4287 24.7708 9.51853 24.4483 8.80336 23.7331C8.0882 23.0179 7.76567 22.1077 7.61143 20.9605C7.46092 19.841 7.46093 18.4071 7.46094 16.5815V16.4862C7.46093 14.6606 7.46092 13.2267 7.61143 12.1072C7.76567 10.96 8.0882 10.0498 8.80336 9.33461C9.51853 8.61945 10.4287 8.29692 11.576 8.14268C12.6955 7.99217 14.1294 7.99218 15.9549 7.99219H16.0503ZM19.7526 16.5339C19.7526 18.6049 18.0737 20.2839 16.0026 20.2839C13.9315 20.2839 12.2526 18.6049 12.2526 16.5339C12.2526 14.4628 13.9315 12.7839 16.0026 12.7839C18.0737 12.7839 19.7526 14.4628 19.7526 16.5339ZM20.5962 12.7839C21.0544 12.7839 21.4258 12.4108 21.4258 11.9505C21.4258 11.4903 21.0544 11.1172 20.5962 11.1172H20.5887C20.1305 11.1172 19.7591 11.4903 19.7591 11.9505C19.7591 12.4108 20.1305 12.7839 20.5887 12.7839H20.5962Z" fill="#18181B"/>
</svg>
