<svg width="32" height="33" viewBox="0 0 32 33" fill="none" xmlns="http://www.w3.org/2000/svg">
<path d="M32 16.5352C32 7.6986 24.8366 0.535156 16 0.535156C7.16344 0.535156 0 7.6986 0 16.5352C0 25.3717 7.16344 32.5352 16 32.5352C24.8366 32.5352 32 25.3717 32 16.5352Z" fill="#F8FAFC"/>
<path fill-rule="evenodd" clip-rule="evenodd" d="M10.6294 15.0434C9.72734 15.0434 9.53906 15.2153 9.53906 16.0388V17.5318C9.53906 18.3553 9.72734 18.5272 10.6294 18.5272H12.8102V24.4995C12.8102 25.323 12.9984 25.4948 13.9005 25.4948H16.0813C16.9834 25.4948 17.1716 25.323 17.1716 24.4995V18.5272H19.6203C20.3044 18.5272 20.4808 18.4058 20.6687 17.8053L21.136 16.3122C21.4579 15.2835 21.2595 15.0434 20.0876 15.0434H17.1716V12.555C17.1716 12.0052 17.6598 11.5596 18.262 11.5596H21.3654C22.2674 11.5596 22.4557 11.3877 22.4557 10.5642V8.57349C22.4557 7.74999 22.2674 7.57812 21.3654 7.57812H18.262C15.251 7.57812 12.8102 9.80634 12.8102 12.555V15.0434H10.6294Z" fill="#18181B"/>
</svg>
