<svg width="313" height="230" viewBox="0 0 313 230" fill="none" xmlns="http://www.w3.org/2000/svg">
<g filter="url(#filter0_b_5204_444)">
<rect x="57.6914" y="0.375" width="255.158" height="178.976" rx="7.73636" fill="url(#paint0_linear_5204_444)" fill-opacity="0.16"/>
<rect x="57.9523" y="0.635897" width="254.636" height="178.454" rx="7.47547" stroke="url(#paint1_linear_5204_444)" stroke-width="0.521795"/>
</g>
<g filter="url(#filter1_b_5204_444)">
<rect x="30.5586" y="27.5098" width="255.158" height="178.976" rx="7.73636" fill="url(#paint2_linear_5204_444)" fill-opacity="0.16"/>
<rect x="30.8195" y="27.7707" width="254.636" height="178.454" rx="7.47547" stroke="url(#paint3_linear_5204_444)" stroke-width="0.521795"/>
<rect x="37.8633" y="97.9512" width="145.581" height="12.0013" rx="6.00064" fill="#94A3B8"/>
<rect x="47.7773" y="43.6836" width="135.667" height="12.0013" rx="6.00064" fill="#94A3B8"/>
<rect opacity="0.4" x="47.7773" y="117.256" width="181.063" height="12.0013" rx="6.00064" fill="#94A3B8"/>
<rect opacity="0.4" x="32.6445" y="136.564" width="196.195" height="12.0013" rx="6.00064" fill="#94A3B8"/>
<path fill-rule="evenodd" clip-rule="evenodd" d="M62.9945 192.461C63.2827 192.461 63.5163 192.695 63.5163 192.983V193.765C63.5163 194.054 63.2827 194.287 62.9945 194.287C62.7064 194.287 62.4727 194.054 62.4727 193.765V192.983C62.4727 192.695 62.7064 192.461 62.9945 192.461ZM60.0011 193.657C60.2049 193.454 60.5353 193.454 60.739 193.657L61.2608 194.179C61.4646 194.383 61.4646 194.713 61.2608 194.917C61.0571 195.121 60.7267 195.121 60.5229 194.917L60.0011 194.395C59.7973 194.192 59.7973 193.861 60.0011 193.657ZM65.957 193.657C66.1607 193.861 66.1607 194.192 65.957 194.395L65.4352 194.917C65.2314 195.121 64.901 195.121 64.6973 194.917C64.4935 194.713 64.4935 194.383 64.6973 194.179L65.2191 193.657C65.4228 193.454 65.7532 193.454 65.957 193.657ZM58.8047 196.651C58.8047 196.363 59.0383 196.129 59.3265 196.129H60.1092C60.3974 196.129 60.631 196.363 60.631 196.651C60.631 196.939 60.3974 197.173 60.1092 197.173H59.3265C59.0383 197.173 58.8047 196.939 58.8047 196.651ZM61.2608 198.354C61.4646 198.557 61.4646 198.888 61.2608 199.091L60.739 199.613C60.5353 199.817 60.2049 199.817 60.0011 199.613C59.7973 199.409 59.7973 199.079 60.0011 198.875L60.5229 198.354C60.7267 198.15 61.0571 198.15 61.2608 198.354Z" fill="#94A3B8"/>
<path d="M69.9999 198.036C70.0695 198.127 70.1514 198.268 70.1503 198.443C70.1476 198.869 69.8573 199.16 69.5757 199.344C69.2865 199.533 68.9149 199.673 68.5536 199.78C68.1871 199.89 67.8028 199.974 67.475 200.042C67.2466 200.089 66.8409 200.171 66.7245 200.204C66.5327 200.258 66.4938 200.293 66.4813 200.306C66.4669 200.322 66.4331 200.368 66.3881 200.573L66.3864 200.581C66.176 201.537 66.0107 202.289 65.8338 202.802C65.7454 203.058 65.6429 203.289 65.5083 203.464C65.3664 203.648 65.1644 203.798 64.8928 203.81C64.714 203.818 64.5703 203.736 64.4796 203.669C64.3829 203.597 64.2948 203.503 64.2162 203.405C64.0579 203.207 63.8944 202.937 63.734 202.631C63.4109 202.013 63.0702 201.188 62.7825 200.342C62.4949 199.495 62.2542 198.61 62.138 197.872C62.0801 197.504 62.0506 197.157 62.067 196.864C62.0822 196.59 62.1408 196.276 62.341 196.06C62.5475 195.838 62.862 195.762 63.1373 195.736C63.431 195.708 63.7784 195.727 64.1469 195.775C64.8867 195.872 65.7769 196.096 66.6293 196.37C67.4823 196.645 68.3157 196.976 68.942 197.294C69.2532 197.452 69.5276 197.615 69.7298 197.773C69.8303 197.852 69.9261 197.94 69.9999 198.036Z" fill="#94A3B8"/>
</g>
<rect x="13.8633" y="171.002" width="46.9615" height="22.4372" rx="7.73636" fill="#ED5959"/>
<rect x="14.1242" y="171.263" width="46.4397" height="21.9154" rx="7.47547" stroke="white" stroke-opacity="0.17" stroke-width="0.521795"/>
<path d="M27.4764 185.221H25.5108V179.149H27.5387C28.1336 179.149 28.6446 179.27 29.0715 179.514C29.4984 179.755 29.8255 180.102 30.0528 180.554C30.2821 181.005 30.3967 181.545 30.3967 182.176C30.3967 182.808 30.2811 183.352 30.0498 183.807C29.8206 184.261 29.4885 184.611 29.0537 184.856C28.6189 185.099 28.0931 185.221 27.4764 185.221ZM26.4269 184.42H27.426C27.8885 184.42 28.273 184.333 28.5793 184.159C28.8857 183.983 29.115 183.729 29.2671 183.397C29.4193 183.063 29.4954 182.656 29.4954 182.176C29.4954 181.7 29.4193 181.295 29.2671 180.963C29.1169 180.631 28.8926 180.379 28.5942 180.207C28.2957 180.035 27.9251 179.949 27.4824 179.949H26.4269V184.42ZM33.1665 185.313C32.7179 185.313 32.3315 185.217 32.0073 185.025C31.6851 184.831 31.4361 184.56 31.2602 184.21C31.0863 183.858 30.9993 183.446 30.9993 182.973C30.9993 182.507 31.0863 182.096 31.2602 181.74C31.4361 181.384 31.6812 181.107 31.9955 180.907C32.3117 180.707 32.6813 180.608 33.1043 180.608C33.3612 180.608 33.6102 180.65 33.8514 180.735C34.0925 180.82 34.3089 180.953 34.5007 181.135C34.6924 181.317 34.8436 181.553 34.9543 181.844C35.065 182.132 35.1203 182.483 35.1203 182.896V183.211H31.5003V182.547H34.2516C34.2516 182.313 34.2042 182.107 34.1093 181.927C34.0144 181.745 33.881 181.602 33.7091 181.497C33.5391 181.392 33.3395 181.34 33.1102 181.34C32.8612 181.34 32.6437 181.401 32.458 181.524C32.2741 181.644 32.1318 181.802 32.031 181.998C31.9322 182.192 31.8828 182.402 31.8828 182.63V183.148C31.8828 183.453 31.9362 183.712 32.0429 183.925C32.1516 184.139 32.3028 184.302 32.4965 184.414C32.6902 184.525 32.9165 184.58 33.1754 184.58C33.3434 184.58 33.4966 184.557 33.635 184.509C33.7733 184.46 33.8929 184.387 33.9937 184.29C34.0945 184.193 34.1716 184.073 34.2249 183.931L35.064 184.082C34.9968 184.329 34.8762 184.546 34.7023 184.732C34.5303 184.915 34.3139 185.059 34.053 185.161C33.7941 185.262 33.4986 185.313 33.1665 185.313ZM36.7294 179.149V185.221H35.8429V179.149H36.7294ZM39.6237 185.313C39.1751 185.313 38.7887 185.217 38.4645 185.025C38.1424 184.831 37.8933 184.56 37.7174 184.21C37.5435 183.858 37.4565 183.446 37.4565 182.973C37.4565 182.507 37.5435 182.096 37.7174 181.74C37.8933 181.384 38.1384 181.107 38.4527 180.907C38.7689 180.707 39.1385 180.608 39.5615 180.608C39.8184 180.608 40.0675 180.65 40.3086 180.735C40.5497 180.82 40.7662 180.953 40.9579 181.135C41.1496 181.317 41.3008 181.553 41.4115 181.844C41.5222 182.132 41.5775 182.483 41.5775 182.896V183.211H37.9576V182.547H40.7088C40.7088 182.313 40.6614 182.107 40.5665 181.927C40.4717 181.745 40.3382 181.602 40.1663 181.497C39.9963 181.392 39.7967 181.34 39.5674 181.34C39.3184 181.34 39.101 181.401 38.9152 181.524C38.7313 181.644 38.589 181.802 38.4882 181.998C38.3894 182.192 38.34 182.402 38.34 182.63V183.148C38.34 183.453 38.3934 183.712 38.5001 183.925C38.6088 184.139 38.76 184.302 38.9537 184.414C39.1474 184.525 39.3737 184.58 39.6326 184.58C39.8006 184.58 39.9538 184.557 40.0922 184.509C40.2305 184.46 40.3501 184.387 40.4509 184.29C40.5517 184.193 40.6288 184.073 40.6822 183.931L41.5212 184.082C41.454 184.329 41.3334 184.546 41.1595 184.732C40.9875 184.915 40.7711 185.059 40.5102 185.161C40.2513 185.262 39.9558 185.313 39.6237 185.313ZM44.4259 180.667V181.378H41.9385V180.667H44.4259ZM42.6055 179.576H43.492V183.884C43.492 184.056 43.5177 184.185 43.5691 184.272C43.6205 184.357 43.6867 184.415 43.7677 184.447C43.8507 184.477 43.9407 184.491 44.0375 184.491C44.1087 184.491 44.1709 184.486 44.2243 184.477C44.2776 184.467 44.3192 184.459 44.3488 184.453L44.5089 185.185C44.4575 185.205 44.3844 185.225 44.2895 185.244C44.1946 185.266 44.076 185.278 43.9337 185.28C43.7005 185.284 43.4831 185.242 43.2815 185.155C43.0799 185.069 42.9168 184.934 42.7923 184.752C42.6678 184.57 42.6055 184.342 42.6055 184.067V179.576ZM47.0593 185.313C46.6106 185.313 46.2242 185.217 45.9001 185.025C45.5779 184.831 45.3289 184.56 45.153 184.21C44.9791 183.858 44.8921 183.446 44.8921 182.973C44.8921 182.507 44.9791 182.096 45.153 181.74C45.3289 181.384 45.574 181.107 45.8882 180.907C46.2045 180.707 46.5741 180.608 46.9971 180.608C47.254 180.608 47.503 180.65 47.7442 180.735C47.9853 180.82 48.2017 180.953 48.3934 181.135C48.5852 181.317 48.7364 181.553 48.8471 181.844C48.9577 182.132 49.0131 182.483 49.0131 182.896V183.211H45.3931V182.547H48.1444C48.1444 182.313 48.097 182.107 48.0021 181.927C47.9072 181.745 47.7738 181.602 47.6019 181.497C47.4319 181.392 47.2323 181.34 47.003 181.34C46.7539 181.34 46.5365 181.401 46.3507 181.524C46.1669 181.644 46.0246 181.802 45.9238 181.998C45.825 182.192 45.7756 182.402 45.7756 182.63V183.148C45.7756 183.453 45.8289 183.712 45.9357 183.925C46.0444 184.139 46.1956 184.302 46.3893 184.414C46.583 184.525 46.8093 184.58 47.0682 184.58C47.2362 184.58 47.3894 184.557 47.5277 184.509C47.6661 184.46 47.7857 184.387 47.8865 184.29C47.9873 184.193 48.0644 184.073 48.1177 183.931L48.9567 184.082C48.8895 184.329 48.769 184.546 48.5951 184.732C48.4231 184.915 48.2067 185.059 47.9458 185.161C47.6869 185.262 47.3914 185.313 47.0593 185.313Z" fill="#F8FAFC"/>
<defs>
<filter id="filter0_b_5204_444" x="51.5864" y="-5.73" width="267.366" height="191.187" filterUnits="userSpaceOnUse" color-interpolation-filters="sRGB">
<feFlood flood-opacity="0" result="BackgroundImageFix"/>
<feGaussianBlur in="BackgroundImageFix" stdDeviation="3.0525"/>
<feComposite in2="SourceAlpha" operator="in" result="effect1_backgroundBlur_5204_444"/>
<feBlend mode="normal" in="SourceGraphic" in2="effect1_backgroundBlur_5204_444" result="shape"/>
</filter>
<filter id="filter1_b_5204_444" x="-17.29" y="-20.3388" width="350.853" height="274.674" filterUnits="userSpaceOnUse" color-interpolation-filters="sRGB">
<feFlood flood-opacity="0" result="BackgroundImageFix"/>
<feGaussianBlur in="BackgroundImageFix" stdDeviation="23.9243"/>
<feComposite in2="SourceAlpha" operator="in" result="effect1_backgroundBlur_5204_444"/>
<feBlend mode="normal" in="SourceGraphic" in2="effect1_backgroundBlur_5204_444" result="shape"/>
</filter>
<linearGradient id="paint0_linear_5204_444" x1="78.8241" y1="0.374985" x2="346.953" y2="70.6822" gradientUnits="userSpaceOnUse">
<stop offset="1" stop-color="#B5B5B5"/>
</linearGradient>
<linearGradient id="paint1_linear_5204_444" x1="54.2998" y1="2.98396" x2="230.829" y2="246.697" gradientUnits="userSpaceOnUse">
<stop stop-color="#2D2E48"/>
<stop offset="1" stop-color="white" stop-opacity="0.06"/>
</linearGradient>
<linearGradient id="paint2_linear_5204_444" x1="237.711" y1="50.4687" x2="131.415" y2="255.699" gradientUnits="userSpaceOnUse">
<stop stop-color="#1B1C36"/>
<stop offset="1" stop-color="#00000B"/>
</linearGradient>
<linearGradient id="paint3_linear_5204_444" x1="30.5586" y1="206.485" x2="312.902" y2="135.225" gradientUnits="userSpaceOnUse">
<stop offset="0.362307" stop-color="#2C2D47"/>
<stop offset="1" stop-color="white" stop-opacity="0.07"/>
</linearGradient>
</defs>
</svg>
